<?xml version="1.0" encoding="UTF-8"?>
<svg version="1.1" xmlns="http://www.w3.org/2000/svg" width="1024" height="1024">
<path d="M0 0 C1.58674026 -0.00639748 1.58674026 -0.00639748 3.20553589 -0.01292419 C4.95463005 -0.01224442 4.95463005 -0.01224442 6.73905945 -0.0115509 C7.96382996 -0.01490952 9.18860046 -0.01826813 10.45048523 -0.02172852 C13.8215229 -0.0296238 17.19249895 -0.0329079 20.56354165 -0.0335443 C22.67802648 -0.03425557 24.7925049 -0.03639172 26.90698814 -0.03904152 C34.30983766 -0.04831274 41.71266916 -0.05237561 49.11552429 -0.05158997 C55.96798269 -0.05099391 62.82036116 -0.06144734 69.67279941 -0.07733363 C75.58310156 -0.09053678 81.49337808 -0.09576834 87.40369481 -0.09513456 C90.92048802 -0.09488258 94.43721076 -0.09756183 97.95398903 -0.10831261 C137.25023496 -0.21971254 172.19552875 3.46763006 203.00346375 30.13371277 C203.77432312 30.75890808 204.5451825 31.38410339 205.33940125 32.02824402 C225.42046925 48.76246735 236.90488668 74.90708839 239.62846375 100.50871277 C239.76920055 102.38259728 239.89418325 104.25773095 240.00346375 106.13371277 C240.05760437 107.01156433 240.111745 107.88941589 240.16752625 108.79386902 C240.92605685 133.30819902 233.21556279 158.54339258 217.00346375 177.13371277 C216.2764325 178.00382996 215.54940125 178.87394714 214.80033875 179.77043152 C201.92946246 194.65497716 185.54651819 203.74172278 168.00346375 212.13371277 C168.3695575 212.63515808 168.73565125 213.13660339 169.11283875 213.65324402 C174.87827216 221.71112358 180.08205295 230.10812019 185.3457489 238.49797058 C188.13223851 242.92844802 190.94233703 247.34384044 193.75346375 251.75871277 C194.33152771 252.66693787 194.90959167 253.57516296 195.50517273 254.51091003 C200.03418462 261.6220959 204.58035683 268.72222991 209.12846375 275.82121277 C213.77719775 283.07726097 218.41055537 290.34219528 223.00346375 297.63371277 C227.76667487 305.19361871 232.56508092 312.73065243 237.37846375 320.25871277 C238.04490906 321.30220886 238.71135437 322.34570496 239.397995 323.42082214 C240.03865906 324.42177917 240.67932312 325.42273621 241.33940125 326.45402527 C241.95396179 327.4146991 242.56852234 328.37537292 243.20170593 329.36515808 C245.38585498 332.72128955 247.65418287 336.01520646 249.95903015 339.28947449 C251.00346375 341.13371277 251.00346375 341.13371277 251.00346375 344.13371277 C240.85272947 344.76326936 230.70671309 345.24082275 220.54034424 345.53264141 C215.81655394 345.67284992 211.10621531 345.8621381 206.3901825 346.170578 C176.76038823 348.05823797 176.76038823 348.05823797 169.29572678 342.96953964 C162.74435358 337.03061428 159.43315298 328.70193005 156.38223267 320.59039307 C154.22813468 315.18990286 151.27761182 310.30908628 148.31596375 305.32121277 C147.250291 303.43441026 146.1885286 301.5453886 145.13237 299.65324402 C141.03626238 292.39236772 136.77664633 285.23032056 132.51908875 278.06340027 C129.58981001 273.13138274 126.67692125 268.18988467 123.7872467 263.23455811 C121.96975102 260.12002327 120.13584403 257.01805037 118.26176453 253.93717957 C114.24680952 247.29180731 110.83443768 240.88209401 108.25004578 233.51139832 C104.71759593 226.44826856 104.71759593 226.44826856 99.00346375 221.13371277 C92.96919996 219.99743391 87.13413095 220.2628776 81.02690125 220.55949402 C79.37556642 220.60563274 77.72410774 220.64754354 76.07255554 220.68510437 C72.04644301 220.78582691 68.02632585 220.94401506 64.00346375 221.13371277 C64.00953927 221.75547079 64.0156148 222.37722881 64.02187443 223.01782799 C64.16921042 238.13163857 64.31095063 253.24549031 64.44642735 268.35941124 C64.51207786 275.66832187 64.57963717 282.97720564 64.6516571 290.28605652 C64.71440915 296.65485577 64.77361343 303.0236763 64.82851928 309.3925482 C64.85772876 312.76624587 64.88874056 316.13990566 64.92399788 319.51354599 C64.96242183 323.27541936 64.99457487 327.03729628 65.02519226 330.79924011 C65.03813828 331.92348892 65.05108429 333.04773773 65.06442261 334.20605469 C65.07498184 335.73734764 65.07498184 335.73734764 65.08575439 337.29957581 C65.09405053 338.19002783 65.10234667 339.08047985 65.1108942 339.99791527 C65.00346375 342.13371277 65.00346375 342.13371277 64.00346375 344.13371277 C54.8938721 344.15683822 45.78429049 344.17462888 36.67467594 344.18552494 C32.44515003 344.19075333 28.21564414 344.19785017 23.98612976 344.20915222 C19.90777832 344.21998268 15.82944618 344.22598994 11.75108147 344.22859001 C10.19168735 344.23044397 8.63229434 344.23406404 7.0729084 344.23944283 C4.89617213 344.24665538 2.7195166 344.24770362 0.54277039 344.24723816 C-1.31921242 344.25056908 -1.31921242 344.25056908 -3.21881104 344.25396729 C-5.99653625 344.13371277 -5.99653625 344.13371277 -6.99653625 343.13371277 C-7.09404886 341.31446631 -7.12025021 339.49138202 -7.11958408 337.66952419 C-7.12157513 336.47621186 -7.12356618 335.28289952 -7.12561756 334.05342621 C-7.12276398 332.7122225 -7.11981837 331.37101899 -7.11679077 330.02981567 C-7.11722635 328.6182707 -7.11810101 327.2067258 -7.11937994 325.79518133 C-7.12162755 321.89809221 -7.11760001 318.00103031 -7.11260188 314.10394466 C-7.10830135 309.90828567 -7.10974352 305.71262834 -7.11050415 301.51696777 C-7.11102964 294.24163382 -7.10788025 286.9663088 -7.10226631 279.6909771 C-7.09415467 269.17194385 -7.09153644 258.65291493 -7.09027832 248.13387889 C-7.08808727 231.06928656 -7.08142575 214.004699 -7.07197571 196.94010925 C-7.06280296 180.35905481 -7.05572146 163.77800166 -7.0514679 147.19694519 C-7.05120517 146.17565543 -7.05094245 145.15436566 -7.05067176 144.10212772 C-7.04936677 138.978846 -7.04810305 133.85556426 -7.04685986 128.73228252 C-7.0364856 86.19942263 -7.01886585 43.66656795 -6.99653625 1.13371277 C-4.49398451 -0.1175631 -2.80118447 0.00509054 0 0 Z M64.00346375 62.13371277 C63.98034254 74.89405147 63.9625498 87.65438522 63.95165157 100.41474056 C63.94642226 106.33921992 63.93932374 112.26368499 63.92802429 118.18815613 C63.91719713 123.90043847 63.91118728 129.61270704 63.9085865 135.32499886 C63.90673194 137.50959554 63.90311075 139.69419142 63.89773369 141.87878227 C63.89052553 144.92723626 63.88947271 147.97563256 63.88993835 151.02409363 C63.88634308 151.93687073 63.8827478 152.84964783 63.87904358 153.79008484 C63.48264716 157.77938732 63.48264716 157.77938732 65.00346375 161.13371277 C66.51973762 161.23739356 68.04079312 161.27222879 69.56059265 161.27897644 C70.5331601 161.28535629 71.50572754 161.29173615 72.50776672 161.29830933 C73.57111237 161.29942215 74.63445801 161.30053497 75.73002625 161.30168152 C77.3725386 161.30667412 77.3725386 161.30667412 79.04823303 161.31176758 C81.38031086 161.31684725 83.71239601 161.31917559 86.04447937 161.3190155 C89.56478991 161.32117373 93.08477244 161.33923882 96.60502625 161.35832214 C126.74151101 161.69288974 126.74151101 161.69288974 152.09721375 147.09855652 C158.83767103 139.96825935 163.41653921 131.87165878 165.00346375 122.13371277 C165.2045575 120.90394714 165.2045575 120.90394714 165.40971375 119.64933777 C167.14226739 106.0251659 163.87923411 92.58862857 155.87846375 81.38371277 C146.6591178 70.41587018 134.17413931 64.54171725 120.0776825 63.00871277 C119.30985443 62.92477264 118.54202637 62.84083252 117.75093079 62.75434875 C107.15033929 61.7177235 96.51654489 61.92029842 85.87846375 62.00871277 C83.74435342 62.01877473 81.61023844 62.02789483 79.47612 62.03605652 C74.31844994 62.05778734 69.16101041 62.09213513 64.00346375 62.13371277 Z " fill="#EAA94B" transform="translate(531.9965362548828,329.8662872314453)"/>
<path d="M0 0 C0.53206055 0.40863281 1.06412109 0.81726563 1.61230469 1.23828125 C9.185829 7.067628 15.3026978 13.34393945 21 21 C21.43650879 21.58426758 21.87301758 22.16853516 22.32275391 22.77050781 C23.70551368 24.63077088 25.07480203 26.49999846 26.4375 28.375 C26.86305176 28.95797852 27.28860352 29.54095703 27.72705078 30.14160156 C29.98354468 33.31037283 31.73736966 36.31560326 33 40 C24.59381449 46.21592757 16.14298777 52.35698016 7.57739258 58.35180664 C3.71577299 61.06034952 -0.11102187 63.80697065 -3.90234375 66.61328125 C-4.7121167 67.20963379 -5.52188965 67.80598633 -6.35620117 68.42041016 C-7.91766764 69.57307658 -9.4740944 70.73261089 -11.0246582 71.89990234 C-17.53530986 76.6923934 -17.53530986 76.6923934 -22 77 C-22.52207031 76.18917969 -23.04414063 75.37835938 -23.58203125 74.54296875 C-34.22025693 58.39053474 -48.65392384 44.01896788 -68.06640625 39.54296875 C-83.51011756 37.41121515 -100.7380007 36.8523278 -113.9375 46.1875 C-121.75904205 52.96138596 -125.60649964 60.77223323 -127 71 C-127.54809843 80.31767336 -124.25161272 88.5020241 -118.57421875 95.84375 C-109.35758543 104.79841183 -93.753912 108.71297406 -81.82943726 112.76794434 C-79.23769387 113.65047263 -76.6502758 114.54476878 -74.0637207 115.44238281 C-70.47855672 116.68640926 -66.89264205 117.9282053 -63.30566406 119.16699219 C-61.53710745 119.77798922 -59.76855273 120.38899173 -58 121 C-57.15723511 121.29104614 -56.31447021 121.58209229 -55.44616699 121.88195801 C-19.13625456 134.43762278 12.86607491 146.68023908 30.75 183.375 C41.85548437 209.00015482 40.59898981 239.60038882 31.375 265.5703125 C21.24644502 290.83415135 1.31078244 309.28005008 -23.23828125 320.0625 C-63.57223037 336.91116848 -112.91049452 334.16485969 -153 318 C-166.9992026 311.78542994 -179.36588144 302.86411003 -191 293 C-191.65871094 292.46503906 -192.31742188 291.93007813 -192.99609375 291.37890625 C-202.85529977 283.27635163 -211.42680461 272.4256447 -217 261 C-209.63402218 255.55546444 -202.14578661 250.3550633 -194.5 245.3125 C-185.83475012 239.57632958 -177.22364263 233.77337074 -168.71289062 227.80981445 C-167.98521484 227.30538818 -167.25753906 226.80096191 -166.5078125 226.28125 C-165.87504395 225.83845703 -165.24227539 225.39566406 -164.59033203 224.93945312 C-163 224 -163 224 -161 224 C-159.97513663 225.65149412 -158.97993223 227.32145581 -158 229 C-155.14337406 232.46466279 -152.06753427 235.72175651 -149 239 C-148.29617188 239.76957031 -147.59234375 240.53914063 -146.8671875 241.33203125 C-130.02567891 259.07465376 -107.59716351 268.57667292 -83.3125 269.25 C-68.92148765 268.78489124 -54.55172724 265.06591977 -44.375 254.375 C-36.40782473 244.96245222 -35.30568845 233.88044215 -36 222 C-37.48334744 212.79821759 -42.36607159 205.37045347 -49.67602539 199.63623047 C-61.46149746 191.33848556 -74.93016684 186.88552258 -88.44567871 182.27459717 C-94.14113878 180.32988903 -99.82116778 178.34087944 -105.50390625 176.359375 C-106.60556122 175.97651337 -107.70721619 175.59365173 -108.84225464 175.19918823 C-132.1786309 167.0818713 -153.99817652 159.24864854 -173 143 C-173.69738281 142.40574219 -174.39476562 141.81148437 -175.11328125 141.19921875 C-190.9965183 126.48440373 -200.35597984 102.88174878 -201.23828125 81.5234375 C-201.82681529 54.48518096 -194.70019355 31.87599826 -177.3125 10.9375 C-176.84875977 10.37651611 -176.38501953 9.81553223 -175.90722656 9.23754883 C-173.51556528 6.44254223 -171.47945669 4.31192629 -168 3 C-168 2.34 -168 1.68 -168 1 C-122.00749291 -37.66245128 -46.51039342 -36.75316716 0 0 Z " fill="#EAA94B" transform="translate(448,351)"/>
<path d="M0 0 C1.06938812 -0.00426498 2.13877625 -0.00852997 3.24057007 -0.01292419 C4.4192012 -0.01247101 5.59783234 -0.01201782 6.81217957 -0.0115509 C8.04980042 -0.01490952 9.28742126 -0.01826813 10.56254578 -0.02172852 C13.96610292 -0.02962061 17.36959905 -0.0329075 20.77316117 -0.0335443 C22.90366454 -0.03425498 25.03416153 -0.03638984 27.16466331 -0.03904152 C34.61016113 -0.04830605 42.05564102 -0.0523758 49.50114441 -0.05158997 C56.41738164 -0.05099171 63.33354022 -0.06149081 70.24975759 -0.07733363 C76.20069867 -0.09047426 82.1516143 -0.09577101 88.10256976 -0.09513456 C91.65040672 -0.0948811 95.19817409 -0.0976463 98.74599648 -0.10831261 C102.71860846 -0.11992765 106.69111596 -0.11520719 110.66374207 -0.10920715 C112.39828896 -0.11763641 112.39828896 -0.11763641 114.1678772 -0.12623596 C121.92126143 -0.09668189 129.32166141 0.75695649 136.94963074 2.13371277 C136.94963074 2.46371277 136.94963074 2.79371277 136.94963074 3.13371277 C90.41963074 3.13371277 43.88963074 3.13371277 -4.05036926 3.13371277 C-4.05036926 114.67371277 -4.05036926 226.21371277 -4.05036926 341.13371277 C17.06963074 341.13371277 38.18963074 341.13371277 59.94963074 341.13371277 C60.60963074 341.46371277 61.26963074 341.79371277 61.94963074 342.13371277 C61.94963074 302.53371277 61.94963074 262.93371277 61.94963074 222.13371277 C62.60963074 222.13371277 63.26963074 222.13371277 63.94963074 222.13371277 C64.10345359 237.74517415 64.25148898 253.35667891 64.39259434 268.96825981 C64.45824445 276.21663653 64.52580358 283.46498616 64.5978241 290.71330261 C64.66057675 297.02936388 64.71978099 303.34544662 64.77468628 309.66158116 C64.80389538 313.00733342 64.83490697 316.35304747 64.87016487 319.69874191 C64.9085896 323.42948205 64.94074227 327.16022578 64.97135925 330.89103699 C64.98430527 332.00593506 64.99725128 333.12083313 65.0105896 334.26951599 C65.01762909 335.28196381 65.02466858 336.29441162 65.03192139 337.33753967 C65.04021752 338.22061735 65.04851366 339.10369503 65.0570612 340.01353264 C64.94963074 342.13371277 64.94963074 342.13371277 63.94963074 344.13371277 C54.84003909 344.15683822 45.73045748 344.17462888 36.62084293 344.18552494 C32.39131703 344.19075333 28.16181114 344.19785017 23.93229675 344.20915222 C19.85394531 344.21998268 15.77561317 344.22598994 11.69724846 344.22859001 C10.13785434 344.23044397 8.57846134 344.23406404 7.01907539 344.23944283 C4.84233912 344.24665538 2.66568359 344.24770362 0.48893738 344.24723816 C-1.37304543 344.25056908 -1.37304543 344.25056908 -3.27264404 344.25396729 C-6.05036926 344.13371277 -6.05036926 344.13371277 -7.05036926 343.13371277 C-7.14788187 341.31446631 -7.17408322 339.49138202 -7.17341709 337.66952419 C-7.17540814 336.47621186 -7.17739919 335.28289952 -7.17945057 334.05342621 C-7.17659699 332.7122225 -7.17365138 331.37101899 -7.17062378 330.02981567 C-7.17105936 328.6182707 -7.17193401 327.2067258 -7.17321295 325.79518133 C-7.17546055 321.89809221 -7.17143301 318.00103031 -7.16643488 314.10394466 C-7.16213436 309.90828567 -7.16357652 305.71262834 -7.16433716 301.51696777 C-7.16486265 294.24163382 -7.16171325 286.9663088 -7.15609932 279.6909771 C-7.14798768 269.17194385 -7.14536945 258.65291493 -7.14411133 248.13387889 C-7.14192028 231.06928656 -7.13525876 214.004699 -7.12580872 196.94010925 C-7.11663597 180.35905481 -7.10955446 163.77800166 -7.1053009 147.19694519 C-7.10503818 146.17565543 -7.10477546 145.15436566 -7.10450477 144.10212772 C-7.10319978 138.978846 -7.10193606 133.85556426 -7.10069287 128.73228252 C-7.09031861 86.19942263 -7.07269885 43.66656795 -7.05036926 1.13371277 C-4.53492788 -0.12400792 -2.81608673 0.0050606 0 0 Z " fill="#EFA63A" transform="translate(532.0503692626953,329.8662872314453)"/>
<path d="M0 0 C5.15921743 -0.22320235 10.31560509 -0.38610225 15.47851562 -0.49438477 C17.23259439 -0.53953126 18.98633651 -0.60086921 20.73925781 -0.67895508 C35.26527433 -1.30962492 35.26527433 -1.30962492 39.36914062 1.78857422 C40.95010812 4.13554146 41.98430401 6.36420296 43 9 C43.73262932 10.26851956 44.48640087 11.5251826 45.265625 12.765625 C45.93043103 13.9251704 46.59196697 15.08659761 47.25 16.25 C47.58773437 16.83523438 47.92546875 17.42046875 48.2734375 18.0234375 C50.12226275 21.26979995 51.70829095 24.49393259 53 28 C53.66 28 54.32 28 55 28 C55.495 29.03125 55.99 30.0625 56.5 31.125 C61.45087596 41.00944116 67.26069124 50.47494697 72.87451172 59.99365234 C78.33084067 69.2467534 83.73261994 78.53167362 89.14160156 87.8125 C91.04897827 91.08400687 92.95786694 94.35462726 94.8671875 97.625 C95.49657227 98.70322021 96.12595703 99.78144043 96.77441406 100.89233398 C97.97666889 102.95186947 99.17913109 105.01128392 100.38183594 107.07055664 C100.9287207 108.00762451 101.47560547 108.94469238 102.0390625 109.91015625 C102.75376709 111.13424194 102.75376709 111.13424194 103.48291016 112.38305664 C105 115 105 115 106.18505859 118.76391602 C107.15074088 120.67310733 107.15074088 120.67310733 109 122 C114.3064399 123.08699811 119.61089515 122.92996733 125 122.8671875 C126.59897506 122.87403555 128.19793931 122.88410176 129.796875 122.89724731 C134.0042888 122.92383945 138.21057512 122.90956794 142.41796875 122.88592529 C147.52704421 122.86430737 152.63606262 122.88844461 157.74511719 122.90797615 C161.72086267 122.92260865 165.6961235 122.9297192 169.671875 122.91378784 C170.40374023 122.91248367 171.13560547 122.9111795 171.88964844 122.90983582 C173.86394096 122.90602438 175.83822314 122.89762473 177.8125 122.8888855 C180.42654445 122.98000965 182.52433727 123.21712001 185 124 C185 123.34 185 122.68 185 122 C185.99 122.33 186.98 122.66 188 123 C188 123.99 188 124.98 188 126 C177.84926573 126.62955659 167.70324935 127.10710999 157.53688049 127.39892864 C152.8130902 127.53913715 148.10275156 127.72842533 143.38671875 128.03686523 C113.75692448 129.9245252 113.75692448 129.9245252 106.29226303 124.83582687 C99.74088984 118.89690152 96.42968923 110.56821728 93.37876892 102.4566803 C91.22467094 97.05619009 88.27414808 92.17537352 85.3125 87.1875 C84.24682726 85.30069749 83.18506485 83.41167583 82.12890625 81.51953125 C78.03279863 74.25865495 73.77318258 67.09660779 69.515625 59.9296875 C66.58629658 54.99758632 63.67405674 50.05561103 60.78323364 45.10084534 C58.96610541 41.98816583 57.13441995 38.88633274 55.26708984 35.8034668 C51.81221554 30.06521063 48.67321949 24.47539393 46.1171875 18.26171875 C42.48185344 9.57079137 42.48185344 9.57079137 36 3 C26.89534419 0.66482204 17.44064284 1.63708836 8.20703125 2.7644043 C5.19170561 2.98591688 2.90737681 2.76003812 0 2 C0 1.34 0 0.68 0 0 Z " fill="#EFA73A" transform="translate(595,548)"/>
<path d="M0 0 C7.2733251 -0.05121855 14.54660273 -0.08594842 21.82006836 -0.10986328 C24.288185 -0.11984588 26.75629004 -0.13343668 29.22436523 -0.15087891 C71.82186895 -0.44411947 71.82186895 -0.44411947 89.81640625 14.83203125 C93.51255037 18.50172711 96.31250793 22.55667978 99 27 C99.41121094 27.63421875 99.82242188 28.2684375 100.24609375 28.921875 C103.84514101 35.09167031 104.34859468 42.00136476 105 49 C105.08507812 49.85722656 105.17015625 50.71445312 105.2578125 51.59765625 C105.92099356 64.83917139 100.66847993 77.03786577 92.30859375 87.01953125 C85.76975595 93.98316594 78.21219579 98.56521847 69 101 C68.195625 101.226875 67.39125 101.45375 66.5625 101.6875 C62.38549871 102.1968904 58.20210107 102.07343478 54 102 C54 101.67 54 101.34 54 101 C54.58378418 100.87995605 55.16756836 100.75991211 55.76904297 100.63623047 C71.89891964 97.25102634 84.88217019 93.51844542 94.6875 79.375 C102.11945799 66.69406838 103.38693465 52.06751568 100 38 C97.55961908 30.3761032 94.44335976 24.82312904 89 19 C89 18.34 89 17.68 89 17 C88.42378906 16.72929687 87.84757813 16.45859375 87.25390625 16.1796875 C84.98037607 14.9897289 83.01682437 13.62522282 80.9375 12.125 C58.69288117 -2.63275683 24.86307551 2.51876251 1 2 C1 33.68 1 65.36 1 98 C0.01 98.495 0.01 98.495 -1 99 C-1.02313205 86.38731588 -1.04091951 73.77463678 -1.05181217 61.16193581 C-1.0570391 55.30586627 -1.06413333 49.44981121 -1.07543945 43.59375 C-1.08627504 37.9463016 -1.09227827 32.29886714 -1.09487724 26.65140915 C-1.09673027 24.49275874 -1.10034857 22.33410913 -1.10573006 20.17546463 C-1.11294936 17.16074195 -1.11399056 14.14607753 -1.11352539 11.13134766 C-1.11712067 10.23151657 -1.12071594 9.33168549 -1.12442017 8.40458679 C-1.11405216 2.22810432 -1.11405216 2.22810432 0 0 Z " fill="#F1A736" transform="translate(595,390)"/>
<path d="M0 0 C1.02486337 1.65149412 2.02006777 3.32145581 3 5 C5.85662594 8.46466279 8.93246573 11.72175651 12 15 C12.70382812 15.76957031 13.40765625 16.53914062 14.1328125 17.33203125 C34.84239995 39.14969626 60.2097216 44.5451721 89 46 C88.67 46.66 88.34 47.32 88 48 C57.95275279 49.02685125 36.34063348 41.30690733 14 21 C11.29848778 18.37634116 8.70626213 15.77018971 6.375 12.8125 C4.12277665 9.88119654 4.12277665 9.88119654 1 8 C0.505 6.515 0.505 6.515 0 5 C-5.1246966 5.45263039 -8.27086237 7.24635762 -12.25 10.3125 C-13.481034 11.22671026 -14.71421586 12.13803344 -15.94921875 13.046875 C-16.92834229 13.76907227 -16.92834229 13.76907227 -17.92724609 14.50585938 C-21.56811752 17.13037447 -25.31688903 19.59090367 -29.0625 22.0625 C-36.4432807 26.94714058 -43.7479396 31.92612028 -51 37 C-50.15437181 43.05681193 -46.85614676 46.44406102 -43 51 C-42.34902344 51.77472656 -41.69804687 52.54945313 -41.02734375 53.34765625 C-31.70591727 64.0629409 -21.79143277 73.57923734 -9.3515625 80.51171875 C-8.57554687 81.00285156 -7.79953125 81.49398437 -7 82 C-7 82.66 -7 83.32 -7 84 C-6.030625 84.28875 -5.06125 84.5775 -4.0625 84.875 C-1 86 -1 86 0 88 C-4.56881382 87.45242681 -7.86197193 85.49151685 -11.625 83 C-12.23674072 82.60063232 -12.84848145 82.20126465 -13.47875977 81.78979492 C-19.31314716 77.91361222 -24.68638571 73.5594798 -30 69 C-30.65613281 68.46632813 -31.31226563 67.93265625 -31.98828125 67.3828125 C-41.85442968 59.28863308 -50.42745436 48.42431266 -56 37 C-48.63402218 31.55546444 -41.14578661 26.3550633 -33.5 21.3125 C-24.83475012 15.57632958 -16.22364263 9.77337074 -7.71289062 3.80981445 C-6.98521484 3.30538818 -6.25753906 2.80096191 -5.5078125 2.28125 C-4.55865967 1.61706055 -4.55865967 1.61706055 -3.59033203 0.93945312 C-2 0 -2 0 0 0 Z " fill="#F1A837" transform="translate(287,575)"/>
<path d="M0 0 C4.56429603 4.56429603 3.23426764 12.70248131 3.25 18.75 C3.23944083 48.07493173 -5.87080325 72.62527186 -26.1328125 94.2421875 C-42.38714931 109.87646787 -67.77737981 123.34003157 -90.8125 123.0625 C-92.27623047 123.04896484 -92.27623047 123.04896484 -93.76953125 123.03515625 C-94.50558594 123.02355469 -95.24164063 123.01195312 -96 123 C-96 122.67 -96 122.34 -96 122 C-95.3922876 121.87995605 -94.7845752 121.75991211 -94.15844727 121.63623047 C-71.95410792 117.18992497 -51.78986215 111.71459057 -34 97 C-33.35933594 96.49210938 -32.71867187 95.98421875 -32.05859375 95.4609375 C-22.55892455 87.61580951 -15.72672927 77.82193951 -10 67 C-9.53722656 66.15179687 -9.07445312 65.30359375 -8.59765625 64.4296875 C-0.59713722 48.52592018 0.18476713 30.25907868 0.0625 12.8125 C0.05798828 11.57435547 0.05347656 10.33621094 0.04882812 9.06054688 C0.03716699 6.04031215 0.02080236 3.02018323 0 0 Z " fill="#F2A836" transform="translate(483,556)"/>
<path d="M0 0 C0.93714844 -0.01224609 1.87429688 -0.02449219 2.83984375 -0.03710938 C8.54039023 -0.04906856 13.40764294 0.56015725 18.875 2.1875 C18.875 2.5175 18.875 2.8475 18.875 3.1875 C17.74707031 3.20208252 16.61914062 3.21666504 15.45703125 3.23168945 C11.19241719 3.29053484 6.92828479 3.36774477 2.6640625 3.44995117 C0.83341402 3.48280157 -0.99732607 3.51095135 -2.828125 3.53393555 C-17.69600912 3.72548997 -31.88554027 4.93526483 -46.0625 9.8125 C-46.79919922 10.06338379 -47.53589844 10.31426758 -48.29492188 10.57275391 C-60.00880621 14.7473829 -70.97732921 20.51553583 -80.33984375 28.75390625 C-82.125 30.1875 -82.125 30.1875 -84.125 30.1875 C-84.125 30.8475 -84.125 31.5075 -84.125 32.1875 C-85.56539566 33.38887804 -87.00908575 34.58661032 -88.47216797 35.76025391 C-91.07030291 38.00378373 -93.12860961 40.6481739 -95.1875 43.375 C-95.61724121 43.93727295 -96.04698242 44.4995459 -96.48974609 45.07885742 C-100.02152178 49.81266901 -102.79432117 54.7533383 -105.125 60.1875 C-105.785 60.1875 -106.445 60.1875 -107.125 60.1875 C-107.393125 61.425 -107.66125 62.6625 -107.9375 63.9375 C-108.76381995 67.29033779 -109.75171274 69.59845936 -112.125 72.1875 C-111.65910348 66.24239797 -110.47232935 61.99237984 -107.5625 56.8125 C-107.20607422 56.1632959 -106.84964844 55.5140918 -106.48242188 54.84521484 C-103.25932665 49.13115983 -99.46085057 44.10927632 -95.125 39.1875 C-94.39539063 38.32640625 -93.66578125 37.4653125 -92.9140625 36.578125 C-88.90284076 31.91526074 -88.90284076 31.91526074 -87.125 30.1875 C-86.465 30.1875 -85.805 30.1875 -85.125 30.1875 C-85.125 29.5275 -85.125 28.8675 -85.125 28.1875 C-61.20927104 8.08334034 -30.74061242 0.02131804 0 0 Z " fill="#F1A939" transform="translate(365.125,323.8125)"/>
<path d="M0 0 C1.83482889 0.43118479 3.66778967 0.87032053 5.5 1.3125 C7.03140625 1.67794922 7.03140625 1.67794922 8.59375 2.05078125 C11.70832308 2.91871847 14.68606754 3.96973864 17.70117188 5.13208008 C20.34729581 6.13112114 23.01403159 7.05711894 25.6875 7.98046875 C62.55317709 20.81203994 62.55317709 20.81203994 73 33 C73 33.66 73 34.32 73 35 C73.66 35 74.32 35 75 35 C75.82275672 36.53621735 76.63272577 38.07928632 77.4375 39.625 C77.88996094 40.48351562 78.34242188 41.34203125 78.80859375 42.2265625 C83.15773538 52.35079383 81.78907957 64.92659334 78 75 C74.09007598 84.63176404 66.30955431 92.11311768 56.8046875 96.29296875 C55.91136719 96.64294922 55.91136719 96.64294922 55 97 C53.96875 97.4125 52.9375 97.825 51.875 98.25 C48.80401863 99.05112557 46.16021742 99.15048654 43 99 C44 97 44 97 47.09765625 95.921875 C48.4187333 95.52943592 49.74038348 95.13892274 51.0625 94.75 C57.29585983 92.78605465 62.23570866 90.61647324 67 86 C67.82564453 85.21496094 67.82564453 85.21496094 68.66796875 84.4140625 C76.55746235 76.11548405 78.32530694 65.63458866 78.2109375 54.609375 C77.6090152 44.30981563 73.42987756 37.0454099 66.0625 30 C53.66997787 20.26164634 38.3909925 15.6667517 23.6875 10.6875 C20.5966092 9.63762269 17.50728386 8.58399386 14.42207336 7.51753235 C12.51903925 6.859847 10.61269685 6.21163781 8.70280457 5.57414246 C7.85043716 5.27985855 6.99806976 4.98557465 6.11987305 4.68237305 C5.37013718 4.42892624 4.62040131 4.17547943 3.84794617 3.91435242 C2 3 2 3 0 0 Z " fill="#F2A937" transform="translate(334,522)"/>
<path d="M0 0 C-0.99 1.485 -0.99 1.485 -2 3 C-1.63390625 3.50144531 -1.2678125 4.00289062 -0.890625 4.51953125 C4.87480841 12.57741081 10.07858921 20.97440742 15.34228516 29.36425781 C18.12877476 33.79473525 20.93887328 38.21012767 23.75 42.625 C24.32806396 43.5332251 24.90612793 44.4414502 25.50170898 45.37719727 C30.03072088 52.48838313 34.57689309 59.58851714 39.125 66.6875 C44.24716672 74.68251297 49.34371806 82.69258961 54.40258789 90.7277832 C59.44431246 98.7258579 64.54971507 106.68314202 69.65820312 114.63867188 C70.30853516 115.65251953 70.95886719 116.66636719 71.62890625 117.7109375 C72.20713135 118.61118652 72.78535645 119.51143555 73.38110352 120.43896484 C73.91533936 121.28410645 74.4495752 122.12924805 75 123 C75.56452881 123.89283691 76.12905762 124.78567383 76.71069336 125.70556641 C78 128 78 128 78 130 C77.34 130 76.68 130 76 130 C74.7824707 128.41455078 74.7824707 128.41455078 73.42578125 126.1953125 C72.92667236 125.38932617 72.42756348 124.58333984 71.91333008 123.75292969 C71.38505615 122.88571289 70.85678223 122.01849609 70.3125 121.125 C69.22064804 119.36080307 68.12691533 117.59776865 67.03125 115.8359375 C66.24234375 114.5670166 66.24234375 114.5670166 65.4375 113.27246094 C63.81139217 110.70184075 62.09544813 108.21416888 60.3125 105.75 C57.08993464 101.2555747 54.2882013 96.5568502 51.47143555 91.80322266 C48.93148076 87.52591098 46.32398442 83.30376206 43.625 79.125 C43.26559326 78.568125 42.90618652 78.01125 42.53588867 77.4375 C40.36680364 74.08747393 38.17947442 70.74966083 35.98828125 67.4140625 C35.48151855 66.6391748 34.97475586 65.86428711 34.45263672 65.06591797 C33.45699836 63.54406404 32.4574354 62.02476914 31.45361328 60.50830078 C31.00356934 59.81978027 30.55352539 59.13125977 30.08984375 58.421875 C29.68628662 57.80924805 29.28272949 57.19662109 28.86694336 56.56542969 C28 55 28 55 28 53 C27.34 53 26.68 53 26 53 C25.70867188 52.3709375 25.41734375 51.741875 25.1171875 51.09375 C22.63201794 45.90459092 19.94738637 41.37331968 16.3984375 36.8515625 C14.75155857 34.67105799 13.42847683 32.35318626 12.11328125 29.9609375 C4.16219086 15.64006 4.16219086 15.64006 -6 3 C-6 2.01 -6 1.02 -6 0 C-3 -1 -3 -1 0 0 Z " fill="#F1A836" transform="translate(702,539)"/>
<path d="M0 0 C0.69222656 0.56847656 0.69222656 0.56847656 1.3984375 1.1484375 C1.3984375 1.8084375 1.3984375 2.4684375 1.3984375 3.1484375 C-2.32944585 2.09698322 -5.43494153 0.70149882 -8.7265625 -1.2890625 C-22.50083907 -8.93389909 -41.95885831 -9.41477874 -57.0390625 -5.2890625 C-66.26742379 -1.77933999 -73.26331028 4.23630914 -77.6015625 13.1484375 C-80.54839577 21.03904234 -80.90806992 27.89545002 -79.6015625 36.1484375 C-79.50230469 36.88835937 -79.40304687 37.62828125 -79.30078125 38.390625 C-79.08704598 39.97928417 -78.8479506 41.564514 -78.6015625 43.1484375 C-81.45391991 41.72225879 -81.6063996 40.13392619 -82.6015625 37.1484375 C-84.782113 27.5540153 -84.29264636 17.16975107 -79.0546875 8.625 C-75.71320329 4.17461616 -72.11628399 0.40323672 -67.6015625 -2.8515625 C-66.9415625 -2.8515625 -66.2815625 -2.8515625 -65.6015625 -2.8515625 C-65.6015625 -3.5115625 -65.6015625 -4.1715625 -65.6015625 -4.8515625 C-63.37392262 -5.66846427 -61.1446139 -6.48018122 -58.9140625 -7.2890625 C-58.28822266 -7.51916016 -57.66238281 -7.74925781 -57.01757812 -7.98632812 C-38.41810298 -14.70551025 -16.48035571 -10.2269401 0 0 Z " fill="#F2A939" transform="translate(401.6015625,396.8515625)"/>
<path d="M0 0 C11.80194406 1.52892725 21.06164249 9.66654885 30 17 C31.33417969 18.0828125 31.33417969 18.0828125 32.6953125 19.1875 C46.62758327 31.06705376 56.63783373 47.21108399 62.5625 64.4375 C62.81418945 65.15832764 63.06587891 65.87915527 63.32519531 66.62182617 C65.00667623 71.88461949 65.2120008 76.48254333 65 82 C62.77532695 78.66299043 62.17893439 76.07843134 61.25 72.1875 C56.8263429 54.81727314 48.51755926 39.83231414 36 27 C35.175 26.13375 34.35 25.2675 33.5 24.375 C32.675 23.59125 31.85 22.8075 31 22 C30.08734375 21.11248047 30.08734375 21.11248047 29.15625 20.20703125 C20.62890076 12.22036538 10.79561888 6.39143819 0 2 C0 1.34 0 0.68 0 0 Z " fill="#F1A838" transform="translate(704,342)"/>
<path d="M0 0 C9.36556013 1.38749039 15.48416897 12.58666565 20.734375 19.65625 C21.63801919 20.8939374 22.53910746 22.13349536 23.4375 23.375 C23.86248779 23.95749512 24.28747559 24.53999023 24.7253418 25.14013672 C26.98313679 28.3089878 28.73711812 31.31486927 30 35 C21.50155463 41.28414883 12.95972737 47.49701536 4.30053711 53.55834961 C0.8086977 56.00460319 -2.65914906 58.47352803 -6.08203125 61.015625 C-7.04290649 61.72319946 -7.04290649 61.72319946 -8.02319336 62.44506836 C-9.22952048 63.33585784 -10.42991782 64.23475209 -11.62329102 65.14282227 C-13.2421875 66.33203125 -13.2421875 66.33203125 -16 68 C-16.99 67.67 -17.98 67.34 -19 67 C-11.53197923 61.14536506 -3.98166526 55.52223805 3.85546875 50.16796875 C6.92007364 48.05510451 9.93406641 45.88622473 12.9375 43.6875 C23.4636976 36 23.4636976 36 26 36 C24.33197394 24.74584824 14.88644199 16.31180329 7.34912109 8.43017578 C4.78701014 5.71413417 2.39607627 2.86197998 0 0 Z " fill="#F2A938" transform="translate(451,356)"/>
<path d="M0 0 C0.66 0 1.32 0 2 0 C2.54527344 1.051875 2.54527344 1.051875 3.1015625 2.125 C6.30742452 8.17503705 9.65959108 13.70681839 14 19 C14.82371094 20.05960937 14.82371094 20.05960937 15.6640625 21.140625 C21.42287678 28.1492245 28.48608022 33.05099133 36 38 C36.61979736 38.41830078 37.23959473 38.83660156 37.87817383 39.26757812 C42.91176593 42.56334504 48.0794369 44.85287588 53.6875 47 C54.55729492 47.3403125 55.42708984 47.680625 56.32324219 48.03125 C58.87908 49.02901885 61.43891485 50.01579187 64 51 C65.39726936 51.54132105 66.79441719 52.08295599 68.19140625 52.625 C71.1245326 53.75832654 74.06018745 54.88415874 77 56 C77 56.33 77 56.66 77 57 C70.49169893 56.4645546 65.00440111 54.80946695 58.9375 52.4375 C58.01573975 52.07889893 57.09397949 51.72029785 56.14428711 51.35083008 C42.12092328 45.7758633 30.47076727 38.80876736 19 29 C18.30261719 28.40574219 17.60523438 27.81148438 16.88671875 27.19921875 C9.86962755 20.69832736 3.85526736 11.69875199 0 3 C0 2.01 0 1.02 0 0 Z " fill="#F1A836" transform="translate(256,465)"/>
<path d="M0 0 C0.6875 1.61328125 0.6875 1.61328125 1 4 C-2.29929769 12.10715584 -7.31493628 19.39241072 -13 26 C-13.72832031 26.87269531 -14.45664062 27.74539063 -15.20703125 28.64453125 C-23.66043404 38.40896258 -33.25598113 45.64420455 -44.375 52.0625 C-45.02871582 52.44486816 -45.68243164 52.82723633 -46.35595703 53.22119141 C-50.61852439 55.58638985 -54.13796622 56.59168967 -59 57 C-57.30005642 53.60011284 -53.48879135 52.55204232 -50.1875 50.9375 C-49.46240234 50.57333984 -48.73730469 50.20917969 -47.99023438 49.83398438 C-44.669192 48.19017475 -41.6341409 46.80349569 -38 46 C-38 45.34 -38 44.68 -38 44 C-36.453125 42.87890625 -36.453125 42.87890625 -34.25 41.5625 C-18.31892838 31.21732299 -8.38854126 16.7313684 0 0 Z " fill="#F1A836" transform="translate(762,481)"/>
<path d="M0 0 C3.04974709 1.12953596 4.17324325 2.22072797 6.22680664 4.8371582 C8.89554741 8.10141577 11.94955061 10.08394388 15.68359375 11.98046875 C16.33130234 12.31700974 16.97901093 12.65355072 17.64634705 13.00028992 C25.48261983 16.93473722 33.73879279 19.61779999 42.0625 22.3125 C44.39792659 23.07967807 46.73195957 23.85078189 49.06455994 24.62651062 C50.49739589 25.1019106 51.93199505 25.57204422 53.3686676 26.03572083 C57.44337195 27.37467141 61.26318628 28.88533609 65 31 C65.495 31.99 65.495 31.99 66 33 C59.85729445 31.55646419 53.85075919 30.08537505 47.984375 27.74609375 C45.72532413 26.8967262 43.44447451 26.22880867 41.125 25.5625 C35.9314912 24.0289525 30.97676633 22.12879022 26 20 C24.94296875 19.5565625 23.8859375 19.113125 22.796875 18.65625 C12.96027905 14.35559875 4.69092561 9.99371108 0 0 Z " fill="#F2A937" transform="translate(323,441)"/>
<path d="M0 0 C17.10245448 -0.60472767 35.19632557 8.55932862 48.9375 18.25 C49.52289551 18.66209717 50.10829102 19.07419434 50.71142578 19.4987793 C53.66973886 21.6866891 55.72385983 23.50064709 57 27 C53.75356772 25.52838263 51.22211214 23.64999279 48.4375 21.4375 C36.09258156 12.38455981 21.64582352 7.05201117 7 3 C5.68194198 2.62492458 4.36422213 2.24865839 3.046875 1.87109375 C2.04140625 1.58363281 1.0359375 1.29617188 0 1 C0 0.67 0 0.34 0 0 Z " fill="#F2A938" transform="translate(393,328)"/>
<path d="M0 0 C0.33 0 0.66 0 1 0 C4.80219524 15.34457365 4.2789955 37.5094071 -3 52 C-3.99 52.66 -4.98 53.32 -6 54 C-5.59464642 50.62205351 -5.16263237 47.47705494 -4.0625 44.25 C-0.86965423 34.48364822 -0.60920107 24.50634535 -0.375 14.3125 C-0.33670856 12.91729633 -0.2976509 11.52211348 -0.2578125 10.12695312 C-0.16437237 6.75142831 -0.07860584 3.3758973 0 0 Z " fill="#F1A837" transform="translate(769,426)"/>
<path d="M0 0 C1.15266357 0.09849243 1.15266357 0.09849243 2.32861328 0.19897461 C13.17169837 1.05525595 24.00396798 1.32422814 34.875 1.5625 C36.7382884 1.60581343 38.60156975 1.64943118 40.46484375 1.69335938 C44.97648909 1.79907425 49.48820919 1.9006959 54 2 C54 2.33 54 2.66 54 3 C41.31648171 5.60174734 29.30757975 5.21707017 16.5 4.125 C15.55592285 4.04668945 14.6118457 3.96837891 13.63916016 3.88769531 C8.82180422 3.43840823 4.53914317 2.80052679 0 1 C0 0.67 0 0.34 0 0 Z " fill="#EFA73C" transform="translate(330,677)"/>
<path d="M0 0 C4.89119191 0.53724762 7.02807512 3.98633681 9.99243164 7.58349609 C18.95216152 18.91949504 26.81884603 33.2607715 26 48 C23.87641781 44.81462671 23.28491292 42.50742676 22.375 38.8125 C18.60162912 25.3341863 12.25704536 14.44384604 3 4 C1.98566415 2.67753996 0.98010232 1.34802716 0 0 Z " fill="#F2A835" transform="translate(457,507)"/>
<path d="M0 0 C0.33 0 0.66 0 1 0 C0.15393655 6.34547591 0.15393655 6.34547591 -0.51171875 9.17578125 C-1.97368033 15.67684444 -2.18692059 21.99080474 -2.1875 28.625 C-2.1882251 29.50752441 -2.1889502 30.39004883 -2.18969727 31.29931641 C-2.14287594 36.93365755 -1.70863594 42.41027974 -1 48 C-1.66 48 -2.32 48 -3 48 C-4.77711803 41.88274909 -5.35130351 36.35789633 -5.3125 30 C-5.30976074 29.08879395 -5.30702148 28.17758789 -5.30419922 27.23876953 C-5.17028067 18.43247075 -4.9928436 7.4892654 0 0 Z " fill="#F1AB3A" transform="translate(252,397)"/>
<path d="M0 0 C6.03293693 0.51549795 10.75722877 2.38141348 16.1875 5 C17.01886475 5.39791748 17.85022949 5.79583496 18.70678711 6.20581055 C36.88872526 15.17786858 36.88872526 15.17786858 40 23 C36.89420019 21.19663237 33.90553989 19.26826712 30.9375 17.25 C22.44679987 11.58484743 13.94237754 6.71275147 4.3984375 3.04296875 C2 2 2 2 0 0 Z " fill="#F2A937" transform="translate(416,483)"/>
<path d="M0 0 C1.98 0.99 1.98 0.99 4 2 C4 2.66 4 3.32 4 4 C4.53625 4.226875 5.0725 4.45375 5.625 4.6875 C12.28302506 8.3669349 15.85284532 13.31986471 19.7421875 19.62304688 C20.94943076 21.54640935 20.94943076 21.54640935 23 24 C24.32 24 25.64 24 27 24 C27 24.99 27 25.98 27 27 C25.35 27.33 23.7 27.66 22 28 C21.47792969 27.18917969 20.95585937 26.37835938 20.41796875 25.54296875 C11.94736417 12.49197421 11.94736417 12.49197421 0 3 C0 2.01 0 1.02 0 0 Z " fill="#F1A93A" transform="translate(404,400)"/>
<path d="M0 0 C10.44642076 -0.73308216 20.80130873 2.06859716 30 7 C30 7.66 30 8.32 30 9 C28.7625 8.608125 27.525 8.21625 26.25 7.8125 C17.59421996 5.20322138 8.77786152 3.15293983 0 1 C0 0.67 0 0.34 0 0 Z " fill="#F3AA36" transform="translate(672,333)"/>
<path d="M0 0 C8.67254919 0.60297309 17.33850205 1.25441318 26 2 C26 2.33 26 2.66 26 3 C22.79174438 3.05849554 19.58362767 3.09376162 16.375 3.125 C15.47136719 3.14175781 14.56773437 3.15851562 13.63671875 3.17578125 C8.67249848 3.21201643 4.65588093 2.96444146 0 1 C0 0.67 0 0.34 0 0 Z " fill="#F4A72F" transform="translate(330,677)"/>
<path d="M0 0 C4.97093824 0.41153737 9.44508386 0.79600832 14 3 C14 3.66 14 4.32 14 5 C14.66 5.33 15.32 5.66 16 6 C10.30860098 4.90301833 5.25432063 3.45946923 0 1 C0 0.67 0 0.34 0 0 Z " fill="#F2A837" transform="translate(390,474)"/>
<path d="M0 0 C2.26375987 2.26375987 2.44972755 3.24863773 3.0625 6.3125 C3.22621094 7.11171875 3.38992187 7.9109375 3.55859375 8.734375 C3.77708984 9.85585938 3.77708984 9.85585938 4 11 C4.309375 12.5159375 4.309375 12.5159375 4.625 14.0625 C4.74875 14.701875 4.8725 15.34125 5 16 C4.34 16 3.68 16 3 16 C0.54970669 10.28264895 -0.33266291 6.20970773 0 0 Z " fill="#F2A836" transform="translate(251,448)"/>
<path d="M0 0 C5.50808397 0.59015185 10.64878069 1.56663769 16 3 C16 3.33 16 3.66 16 4 C9.80112515 4.37952295 5.5522888 3.8352113 0 1 C0 0.67 0 0.34 0 0 Z " fill="#F2A834" transform="translate(313,673)"/>
<path d="M0 0 C5.27749285 0.53851968 9.25645564 1.77343836 14 4 C14 4.33 14 4.66 14 5 C9.02906176 4.58846263 4.55491614 4.20399168 0 2 C0 1.34 0 0.68 0 0 Z " fill="#F2A938" transform="translate(298,668)"/>
<path d="M0 0 C3.63 0.33 7.26 0.66 11 1 C11 1.66 11 2.32 11 3 C8.36 3 5.72 3 3 3 C3 2.34 3 1.68 3 1 C2.01 0.67 1.02 0.34 0 0 Z " fill="#F0AB3F" transform="translate(381,325)"/>
<path d="M0 0 C2.97 0.99 5.94 1.98 9 3 C9 3.66 9 4.32 9 5 C3.48387097 4.38709677 3.48387097 4.38709677 1.125 2.5 C0 1 0 1 0 0 Z " fill="#F1A939" transform="translate(288,663)"/>
<path d="M0 0 C1 4 1 4 1 4 Z " fill="#ECB051" transform="translate(523,620)"/>
<path d="M0 0 C0.99 0.495 0.99 0.495 2 1 C1.67 1.66 1.34 2.32 1 3 C0.67 2.01 0.34 1.02 0 0 Z " fill="#EDAF52" transform="translate(690,419)"/>
<path d="" fill="#EFB051" transform="translate(0,0)"/>
<path d="" fill="#EDAF51" transform="translate(0,0)"/>
<path d="" fill="#EAAE51" transform="translate(0,0)"/>
<path d="" fill="#E5AC54" transform="translate(0,0)"/>
<path d="" fill="#EEB051" transform="translate(0,0)"/>
<path d="" fill="#EDAF51" transform="translate(0,0)"/>
<path d="" fill="#EEB051" transform="translate(0,0)"/>
<path d="" fill="#ECB051" transform="translate(0,0)"/>
<path d="" fill="#ECAF50" transform="translate(0,0)"/>
<path d="M0 0 C2 1 2 1 2 1 Z " fill="#E0AB54" transform="translate(526,328)"/>
<path d="M0 0 C2 1 2 1 2 1 Z " fill="#E5AC53" transform="translate(321,328)"/>
<path d="" fill="#5F5D58" transform="translate(0,0)"/>
<path d="" fill="#E4AD55" transform="translate(0,0)"/>
<path d="" fill="#E4AB51" transform="translate(0,0)"/>
<path d="" fill="#EAAF54" transform="translate(0,0)"/>
<path d="" fill="#E4AC54" transform="translate(0,0)"/>
<path d="" fill="#E9AC53" transform="translate(0,0)"/>
<path d="" fill="#E7AC51" transform="translate(0,0)"/>
<path d="" fill="#E6AB50" transform="translate(0,0)"/>
<path d="" fill="#EDAF52" transform="translate(0,0)"/>
<path d="" fill="#EDAE52" transform="translate(0,0)"/>
<path d="" fill="#ECAF51" transform="translate(0,0)"/>
<path d="" fill="#EDB251" transform="translate(0,0)"/>
<path d="" fill="#EDAF50" transform="translate(0,0)"/>
<path d="" fill="#EDB052" transform="translate(0,0)"/>
<path d="" fill="#EDAF53" transform="translate(0,0)"/>
<path d="" fill="#EDB150" transform="translate(0,0)"/>
<path d="" fill="#EDB051" transform="translate(0,0)"/>
<path d="" fill="#EEAF50" transform="translate(0,0)"/>
<path d="" fill="#EEB053" transform="translate(0,0)"/>
<path d="" fill="#EFB052" transform="translate(0,0)"/>
<path d="" fill="#ECB258" transform="translate(0,0)"/>
<path d="" fill="#E5AC54" transform="translate(0,0)"/>
<path d="" fill="#F0B051" transform="translate(0,0)"/>
<path d="" fill="#ECAF51" transform="translate(0,0)"/>
<path d="" fill="#EEB050" transform="translate(0,0)"/>
<path d="" fill="#ECB153" transform="translate(0,0)"/>
<path d="" fill="#EDB052" transform="translate(0,0)"/>
<path d="" fill="#EDAE52" transform="translate(0,0)"/>
<path d="" fill="#ECAF50" transform="translate(0,0)"/>
<path d="" fill="#EEB155" transform="translate(0,0)"/>
<path d="" fill="#EFB152" transform="translate(0,0)"/>
<path d="" fill="#EDAF52" transform="translate(0,0)"/>
<path d="" fill="#EDAF53" transform="translate(0,0)"/>
<path d="" fill="#EEAF51" transform="translate(0,0)"/>
<path d="" fill="#EFAE50" transform="translate(0,0)"/>
<path d="" fill="#ECAF52" transform="translate(0,0)"/>
<path d="" fill="#EFB151" transform="translate(0,0)"/>
<path d="" fill="#F0AF50" transform="translate(0,0)"/>
<path d="" fill="#EEB051" transform="translate(0,0)"/>
<path d="" fill="#EEB052" transform="translate(0,0)"/>
<path d="" fill="#E8AB55" transform="translate(0,0)"/>
<path d="" fill="#ECB051" transform="translate(0,0)"/>
<path d="" fill="#E8AC54" transform="translate(0,0)"/>
<path d="" fill="#ECB051" transform="translate(0,0)"/>
<path d="" fill="#EDAF53" transform="translate(0,0)"/>
<path d="" fill="#EBAF54" transform="translate(0,0)"/>
<path d="" fill="#EDB054" transform="translate(0,0)"/>
<path d="" fill="#ECB052" transform="translate(0,0)"/>
<path d="" fill="#E7B054" transform="translate(0,0)"/>
<path d="" fill="#ECAE51" transform="translate(0,0)"/>
<path d="" fill="#EDB152" transform="translate(0,0)"/>
<path d="" fill="#E4AA52" transform="translate(0,0)"/>
<path d="" fill="#E5AB54" transform="translate(0,0)"/>
<path d="" fill="#EDB154" transform="translate(0,0)"/>
<path d="" fill="#EDB150" transform="translate(0,0)"/>
<path d="" fill="#EEAF51" transform="translate(0,0)"/>
<path d="" fill="#DEA955" transform="translate(0,0)"/>
<path d="" fill="#EFAF51" transform="translate(0,0)"/>
<path d="" fill="#EEB053" transform="translate(0,0)"/>
<path d="" fill="#ECB152" transform="translate(0,0)"/>
<path d="" fill="#EDAE55" transform="translate(0,0)"/>
<path d="" fill="#ECAF53" transform="translate(0,0)"/>
<path d="" fill="#EEB150" transform="translate(0,0)"/>
<path d="" fill="#EDB152" transform="translate(0,0)"/>
<path d="" fill="#ECB151" transform="translate(0,0)"/>
<path d="" fill="#EDB152" transform="translate(0,0)"/>
<path d="" fill="#ECB053" transform="translate(0,0)"/>
<path d="" fill="#EEB04F" transform="translate(0,0)"/>
<path d="" fill="#ECB153" transform="translate(0,0)"/>
<path d="" fill="#EDAF51" transform="translate(0,0)"/>
<path d="" fill="#ECB051" transform="translate(0,0)"/>
<path d="" fill="#EBAD50" transform="translate(0,0)"/>
<path d="" fill="#EDB052" transform="translate(0,0)"/>
<path d="" fill="#EBB052" transform="translate(0,0)"/>
<path d="" fill="#E3AA54" transform="translate(0,0)"/>
<path d="" fill="#ECAD52" transform="translate(0,0)"/>
<path d="" fill="#EDAF52" transform="translate(0,0)"/>
<path d="" fill="#EBAF51" transform="translate(0,0)"/>
<path d="" fill="#ECAD50" transform="translate(0,0)"/>
<path d="" fill="#EBAC51" transform="translate(0,0)"/>
<path d="" fill="#DFA958" transform="translate(0,0)"/>
<path d="" fill="#E9AC52" transform="translate(0,0)"/>
<path d="" fill="#E1AA54" transform="translate(0,0)"/>
<path d="" fill="#E3AD55" transform="translate(0,0)"/>
<path d="" fill="#E5AB52" transform="translate(0,0)"/>
</svg>
